<svg width="64" height="64" viewBox="0 0 64 64" fill="none" xmlns="http://www.w3.org/2000/svg">
    <path d="M0.585786 60.5858C-0.195262 61.3668 -0.195262 62.6332 0.585786 63.4142C1.36684 64.1953 2.63316 64.1953 3.41421 63.4142L0.585786 60.5858ZM63.4142 3.41421C64.1953 2.63316 64.1953 1.36684 63.4142 0.585786C62.6332 -0.195262 61.3668 -0.195262 60.5858 0.585786L63.4142 3.41421ZM60.5858 63.4142C61.3668 64.1953 62.6332 64.1953 63.4142 63.4142C64.1953 62.6332 64.1953 61.3668 63.4142 60.5858L60.5858 63.4142ZM3.41421 0.585786C2.63316 -0.195262 1.36684 -0.195262 0.585786 0.585786C-0.195262 1.36684 -0.195262 2.63316 0.585786 3.41421L3.41421 0.585786ZM3.41421 63.4142L33.4142 33.4142L30.5858 30.5858L0.585786 60.5858L3.41421 63.4142ZM33.4142 33.4142L63.4142 3.41421L60.5858 0.585786L30.5858 30.5858L33.4142 33.4142ZM30.5858 33.4142L60.5858 63.4142L63.4142 60.5858L33.4142 30.5858L30.5858 33.4142ZM63.4142 60.5858L3.41421 0.585786L0.585786 3.41421L60.5858 63.4142L63.4142 60.5858Z" fill="#828275"/>
</svg>
